<svg width="400" height="400" viewBox="0 0 400 400" xmlns="http://www.w3.org/2000/svg">
  <!-- Two curly braces facing opposite directions with a clean, modern look -->
  <g transform="translate(200, 200)">
    <!-- Left brace - opening { -->
    <path d="M -30 -90 
             Q -50 -90 -60 -80
             Q -70 -70 -70 -50
             L -70 -15
             Q -70 -5 -80 -5
             L -90 -5
             L -90 5
             L -80 5
             Q -70 5 -70 15
             L -70 50
             Q -70 70 -60 80
             Q -50 90 -30 90"
          fill="none" 
          stroke="#000000" 
          stroke-width="10" 
          stroke-linecap="round"
          stroke-linejoin="round"/>
    
    <!-- Right brace - closing } but flipped (reversed) -->
    <path d="M 30 -90 
             Q 50 -90 60 -80
             Q 70 -70 70 -50
             L 70 -15
             Q 70 -5 80 -5
             L 90 -5
             L 90 5
             L 80 5
             Q 70 5 70 15
             L 70 50
             Q 70 70 60 80
             Q 50 90 30 90"
          fill="none" 
          stroke="#000000" 
          stroke-width="10" 
          stroke-linecap="round"
          stroke-linejoin="round"/>
    
    <!-- Center element - small dots suggesting data flow/reverse -->
    <circle cx="-15" cy="0" r="4" fill="#ef4444"/>
    <circle cx="0" cy="0" r="4" fill="#ef4444"/>
    <circle cx="15" cy="0" r="4" fill="#ef4444"/>
  </g>
</svg>
